REM DIRINDEX 1\2,1\3,1\4,1\5,1\6
REM DIRNAME folder01,folder02,folder03,folder04,folder05,folder06
TITLE ""
FILE "CD2-48.mp3" MP3
  TRACK 01 AUDIO
    TITLE "6:cjc091_2406"
    INDEX 01 00:00:00
  TRACK 02 AUDIO
    TITLE "0:"
    INDEX 01 00:02:10
  TRACK 03 AUDIO
    TITLE "2:cjc091_2407"
    INDEX 01 00:03:33
  TRACK 04 AUDIO
    TITLE "0:"
    INDEX 01 00:04:74
  TRACK 05 AUDIO
    TITLE "3:cjc091_2408"
    INDEX 01 00:05:16
  TRACK 06 AUDIO
    TITLE "0:"
    INDEX 01 00:07:15
  TRACK 07 AUDIO
    TITLE "4:cjc091_2409"
    INDEX 01 00:07:37
  TRACK 08 AUDIO
    TITLE "0:"
    INDEX 01 00:09:22
  TRACK 09 AUDIO
    TITLE "2:cjc091_2410"
    INDEX 01 00:10:33
  TRACK 10 AUDIO
    TITLE "0:"
    INDEX 01 00:11:58
  TRACK 11 AUDIO
    TITLE "3:cjc091_2411"
    INDEX 01 00:11:60
  TRACK 12 AUDIO
    TITLE "0:"
    INDEX 01 00:12:73
  TRACK 13 AUDIO
    TITLE "4:cjc091_2412"
    INDEX 01 00:13:22
  TRACK 14 AUDIO
    TITLE "0:"
    INDEX 01 00:17:33
  TRACK 15 AUDIO
    TITLE "2:cjc091_2413"
    INDEX 01 00:18:44
  TRACK 16 AUDIO
    TITLE "0:"
    INDEX 01 00:20:10
  TRACK 17 AUDIO
    TITLE "3:cjc091_2414"
    INDEX 01 00:20:39
  TRACK 18 AUDIO
    TITLE "0:"
    INDEX 01 00:21:70
  TRACK 19 AUDIO
    TITLE "4:cjc091_2415"
    INDEX 01 00:22:13
  TRACK 20 AUDIO
    TITLE "0:"
    INDEX 01 00:26:26
  TRACK 21 AUDIO
    TITLE "2:cjc091_2416"
    INDEX 01 00:27:41
  TRACK 22 AUDIO
    TITLE "0:"
    INDEX 01 00:28:59
  TRACK 23 AUDIO
    TITLE "3:cjc091_2417"
    INDEX 01 00:29:01
  TRACK 24 AUDIO
    TITLE "0:"
    INDEX 01 00:30:50
  TRACK 25 AUDIO
    TITLE "4:cjc091_2418"
    INDEX 01 00:30:63
  TRACK 26 AUDIO
    TITLE "0:"
    INDEX 01 00:34:16
  TRACK 27 AUDIO
    TITLE "2:cjc091_2419"
    INDEX 01 00:35:29
  TRACK 28 AUDIO
    TITLE "0:"
    INDEX 01 00:36:46
  TRACK 29 AUDIO
    TITLE "3:cjc091_2420"
    INDEX 01 00:36:62
  TRACK 30 AUDIO
    TITLE "0:"
    INDEX 01 00:37:65
  TRACK 31 AUDIO
    TITLE "4:cjc091_2421"
    INDEX 01 00:38:16
  TRACK 32 AUDIO
    TITLE "0:"
    INDEX 01 00:40:70
  TRACK 33 AUDIO
    TITLE "2:cjc091_2422"
    INDEX 01 00:42:08
  TRACK 34 AUDIO
    TITLE "0:"
    INDEX 01 00:43:56
  TRACK 35 AUDIO
    TITLE "3:cjc091_2423"
    INDEX 01 00:43:68
  TRACK 36 AUDIO
    TITLE "0:"
    INDEX 01 00:45:37
  TRACK 37 AUDIO
    TITLE "4:cjc091_2424"
    INDEX 01 00:45:61
  TRACK 38 AUDIO
    TITLE "0:"
    INDEX 01 00:49:27
  TRACK 39 AUDIO
    TITLE "2:cjc091_2425"
    INDEX 01 00:50:42
  TRACK 40 AUDIO
    TITLE "0:"
    INDEX 01 00:52:20
  TRACK 41 AUDIO
    TITLE "3:cjc091_2426"
    INDEX 01 00:52:34
  TRACK 42 AUDIO
    TITLE "0:"
    INDEX 01 00:54:36
  TRACK 43 AUDIO
    TITLE "4:cjc091_2427"
    INDEX 01 00:54:58
  TRACK 44 AUDIO
    TITLE "0:"
    INDEX 01 00:58:67
  TRACK 45 AUDIO
    TITLE "2:cjc091_2428"
    INDEX 01 01:00:04
  TRACK 46 AUDIO
    TITLE "0:"
    INDEX 01 01:01:31
  TRACK 47 AUDIO
    TITLE "3:cjc091_2429"
    INDEX 01 01:01:46
  TRACK 48 AUDIO
    TITLE "0:"
    INDEX 01 01:03:39
  TRACK 49 AUDIO
    TITLE "4:cjc091_2430"
    INDEX 01 01:03:55
  TRACK 50 AUDIO
    TITLE "0:"
    INDEX 01 01:05:52
  TRACK 51 AUDIO
    TITLE "2:cjc091_2431"
    INDEX 01 01:06:63
  TRACK 52 AUDIO
    TITLE "0:"
    INDEX 01 01:08:38
  TRACK 53 AUDIO
    TITLE "3:cjc091_2432"
    INDEX 01 01:08:56
  TRACK 54 AUDIO
    TITLE "0:"
    INDEX 01 01:10:04
  TRACK 55 AUDIO
    TITLE "4:cjc091_2433"
    INDEX 01 01:10:26
  TRACK 56 AUDIO
    TITLE "0:"
    INDEX 01 01:13:61
  TRACK 57 AUDIO
    TITLE "2:cjc091_2434"
    INDEX 01 01:15:05
  TRACK 58 AUDIO
    TITLE "0:"
    INDEX 01 01:16:40
  TRACK 59 AUDIO
    TITLE "3:cjc091_2435"
    INDEX 01 01:16:60
  TRACK 60 AUDIO
    TITLE "0:"
    INDEX 01 01:19:17
  TRACK 61 AUDIO
    TITLE "4:cjc091_2436"
    INDEX 01 01:19:36
  TRACK 62 AUDIO
    TITLE "0:"
    INDEX 01 01:23:54
  TRACK 63 AUDIO
    TITLE "2:cjc091_2437"
    INDEX 01 01:24:69
  TRACK 64 AUDIO
    TITLE "0:"
    INDEX 01 01:26:44
  TRACK 65 AUDIO
    TITLE "3:cjc091_2438"
    INDEX 01 01:26:62
  TRACK 66 AUDIO
    TITLE "0:"
    INDEX 01 01:28:69
  TRACK 67 AUDIO
    TITLE "4:cjc091_2439"
    INDEX 01 01:29:11
  TRACK 68 AUDIO
    TITLE "0:"
    INDEX 01 01:34:08
  TRACK 69 AUDIO
    TITLE "2:cjc091_2440"
    INDEX 01 01:35:18
  TRACK 70 AUDIO
    TITLE "0:"
    INDEX 01 01:36:37
  TRACK 71 AUDIO
    TITLE "3:cjc091_2441"
    INDEX 01 01:36:54
  TRACK 72 AUDIO
    TITLE "0:"
    INDEX 01 01:38:55
  TRACK 73 AUDIO
    TITLE "4:cjc091_2442"
    INDEX 01 01:38:73
  TRACK 74 AUDIO
    TITLE "0:"
    INDEX 01 01:42:43
  TRACK 75 AUDIO
    TITLE "2:cjc091_2443"
    INDEX 01 01:43:51
  TRACK 76 AUDIO
    TITLE "0:"
    INDEX 01 01:45:24
  TRACK 77 AUDIO
    TITLE "3:cjc091_2444"
    INDEX 01 01:45:45
  TRACK 78 AUDIO
    TITLE "0:"
    INDEX 01 01:47:46
  TRACK 79 AUDIO
    TITLE "4:cjc091_2445"
    INDEX 01 01:47:66
  TRACK 80 AUDIO
    TITLE "0:"
    INDEX 01 01:51:11
  TRACK 81 AUDIO
    TITLE "2:cjc091_2446"
    INDEX 01 01:52:22
  TRACK 82 AUDIO
    TITLE "0:"
    INDEX 01 01:54:07
  TRACK 83 AUDIO
    TITLE "3:cjc091_2447"
    INDEX 01 01:54:21
  TRACK 84 AUDIO
    TITLE "0:"
    INDEX 01 01:55:63
  TRACK 85 AUDIO
    TITLE "4:cjc091_2448"
    INDEX 01 01:56:10
  TRACK 86 AUDIO
    TITLE "0:"
    INDEX 01 02:01:05
  TRACK 87 AUDIO
    TITLE "2:cjc091_2449"
    INDEX 01 02:02:17
  TRACK 88 AUDIO
    TITLE "0:"
    INDEX 01 02:03:69
  TRACK 89 AUDIO
    TITLE "3:cjc091_2450"
    INDEX 01 02:04:10
  TRACK 90 AUDIO
    TITLE "0:"
    INDEX 01 02:05:56
  TRACK 91 AUDIO
    TITLE "4:cjc091_2451"
    INDEX 01 02:06:01
  TRACK 92 AUDIO
    TITLE "0:"
    INDEX 01 02:10:32
